<svg width="50" height="50" viewBox="0 0 50 50" fill="none" xmlns="http://www.w3.org/2000/svg">
<path d="M50 18.7502L48.3093 20.4409C47.3594 21.3909 46.2623 22.1815 45.0607 22.7824L41.4877 24.569L25.4313 8.51254L27.2179 4.93955C27.8187 3.73794 28.6095 2.64105 29.5594 1.69094L31.2501 0.000259399C31.2501 0.000156403 50 18.7502 50 18.7502Z" fill="white"/>
<path d="M37.259 29.1779C33.3344 35.374 34.3751 40.625 34.3751 40.625L5.34058e-05 50L9.37502 15.625C9.37502 15.625 14.6261 16.6657 20.8222 12.7411C20.8223 12.7411 37.259 29.1779 37.259 29.1779ZM12.5001 32.8125C12.5001 35.4013 14.5988 37.5 17.1876 37.5C19.7764 37.5 21.875 35.4013 21.875 32.8125C21.875 30.2237 19.7764 28.125 17.1876 28.125C14.5988 28.125 12.5001 30.2237 12.5001 32.8125Z" fill="white"/>
</svg>
