<svg width="25" height="23" viewBox="0 0 25 23" fill="none" xmlns="http://www.w3.org/2000/svg">
<path d="M0 22.862V8.70996C0 4.33334 3.07833 0.771973 6.86134 0.771973H18.137C21.9208 0.771973 25 4.33334 25 8.70996V11.1509C25 15.5276 21.9217 19.0889 18.1387 19.0889H7.02041L0 22.862ZM6.86134 2.54169C3.92147 2.54169 1.52969 5.30878 1.52969 8.70996V20.0882L6.68332 17.3183H18.1387C21.0785 17.3183 23.4703 14.5512 23.4703 11.15V8.709C23.4703 5.30783 21.0777 2.54074 18.137 2.54074H6.86134V2.54169ZM7.36574 8.57551C8.16932 8.57551 8.82043 9.32878 8.82043 10.2585C8.82043 11.1881 8.16932 11.9414 7.36574 11.9414C6.56216 11.9414 5.91105 11.1881 5.91105 10.2585C5.91105 9.32878 6.56216 8.57551 7.36574 8.57551ZM17.6334 8.57551C18.437 8.57551 19.0881 9.32878 19.0881 10.2585C19.0881 11.1881 18.437 11.9414 17.6334 11.9414C16.8299 11.9414 16.1787 11.1881 16.1787 10.2585C16.1787 9.32878 16.8299 8.57551 17.6334 8.57551ZM12.4988 8.57551C13.3023 8.57551 13.9535 9.32878 13.9535 10.2585C13.9535 11.1881 13.3023 11.9414 12.4988 11.9414C11.6952 11.9414 11.0441 11.1881 11.0441 10.2585C11.0441 9.32878 11.6952 8.57551 12.4988 8.57551Z" fill="#B5C3CB"/>
</svg>
